<svg width="33" height="33" viewBox="0 0 33 33" fill="none" xmlns="http://www.w3.org/2000/svg">
<path d="M6.45595 28.2955C6.88221 26.8768 7.75445 25.6333 8.94326 24.7494C10.1321 23.8655 11.5741 23.3885 13.0555 23.3889H19.9444C21.4277 23.3884 22.8715 23.8666 24.0612 24.7525C25.2508 25.6384 26.1228 26.8846 26.5474 28.3058M1 16.5C1 18.5355 1.40092 20.551 2.17987 22.4316C2.95881 24.3121 4.10054 26.0208 5.53984 27.4602C6.97915 28.8995 8.68786 30.0412 10.5684 30.8201C12.449 31.5991 14.4645 32 16.5 32C18.5355 32 20.551 31.5991 22.4316 30.8201C24.3121 30.0412 26.0208 28.8995 27.4602 27.4602C28.8995 26.0208 30.0412 24.3121 30.8201 22.4316C31.5991 20.551 32 18.5355 32 16.5C32 14.4645 31.5991 12.449 30.8201 10.5684C30.0412 8.68786 28.8995 6.97915 27.4602 5.53984C26.0208 4.10054 24.3121 2.95882 22.4316 2.17987C20.551 1.40092 18.5355 1 16.5 1C14.4645 1 12.449 1.40092 10.5684 2.17987C8.68786 2.95882 6.97915 4.10054 5.53984 5.53984C4.10054 6.97915 2.95881 8.68786 2.17987 10.5684C1.40092 12.449 1 14.4645 1 16.5ZM11.3333 13.0556C11.3333 14.4258 11.8777 15.74 12.8466 16.7089C13.8156 17.6779 15.1297 18.2222 16.5 18.2222C17.8703 18.2222 19.1844 17.6779 20.1534 16.7089C21.1223 15.74 21.6667 14.4258 21.6667 13.0556C21.6667 11.6853 21.1223 10.3711 20.1534 9.40217C19.1844 8.43323 17.8703 7.88889 16.5 7.88889C15.1297 7.88889 13.8156 8.43323 12.8466 9.40217C11.8777 10.3711 11.3333 11.6853 11.3333 13.0556Z" stroke="#5B7A8E" stroke-width="2" stroke-linecap="round" stroke-linejoin="round"/>
</svg>
