<svg width="33" height="33" viewBox="0 0 33 33" fill="none" xmlns="http://www.w3.org/2000/svg">
<path d="M20.625 2.75C25.9245 2.75 30.25 7.07555 30.25 12.375C30.25 17.6745 25.9245 22 20.625 22C18.2215 22 16.0256 21.1035 14.3354 19.6367L13.75 20.2222V22L5.5 30.25L2.75 27.5L11 19.25H12.7778L13.3633 18.6646C11.8965 16.9744 11 14.7785 11 12.375C11 7.07555 15.3255 2.75 20.625 2.75ZM20.625 5.5C16.8118 5.5 13.75 8.56176 13.75 12.375C13.75 16.1882 16.8118 19.25 20.625 19.25C24.4382 19.25 27.5 16.1882 27.5 12.375C27.5 8.56176 24.4382 5.5 20.625 5.5Z" fill="#577C8E"/>
</svg>
