<svg width="57" height="66" viewBox="0 0 57 66" fill="none" xmlns="http://www.w3.org/2000/svg">
<path d="M6 57V27H42V30C44.1 30 46.11 30.3 48 30.87V27C48 23.7 45.3 21 42 21H39V15C39 6.72 32.28 0 24 0C15.72 0 9 6.72 9 15V21H6C2.7 21 0 23.7 0 27V57C0 60.3 2.7 63 6 63H24.78C23.52 61.2 22.53 59.16 21.87 57H6ZM15 15C15 10.02 19.02 6 24 6C28.98 6 33 10.02 33 15V21H15V15Z" fill="#577C8E"/>
<path d="M41.9999 36C33.7199 36 26.9999 42.72 26.9999 51C26.9999 59.28 33.7199 66 41.9999 66C50.2799 66 56.9999 59.28 56.9999 51C56.9999 42.72 50.2799 36 41.9999 36ZM41.9999 42C44.4899 42 46.4999 44.01 46.4999 46.5C46.4999 48.99 44.4899 51 41.9999 51C39.5099 51 37.4999 48.99 37.4999 46.5C37.4999 44.01 39.5099 42 41.9999 42ZM41.9999 60C38.9099 60 36.1799 58.44 34.5599 56.04C36.7499 54.78 39.2699 54 41.9999 54C44.7299 54 47.2499 54.78 49.4399 56.04C47.8199 58.44 45.0899 60 41.9999 60Z" fill="#577C8E"/>
</svg>
